<svg width="1443" height="506" viewBox="0 0 1443 506" fill="none" xmlns="http://www.w3.org/2000/svg">
<g clip-path="url(#clip0_552_181)">
<path fill-rule="evenodd" clip-rule="evenodd" d="M243.599 0.477461C262.994 -1.11287 285.239 1.51118 302.488 4.51293C320.611 7.66708 335.838 12.8224 350.602 19.3163C380.109 32.2907 405.766 48.5651 426.308 69.1135C437.129 79.941 446.253 91.7359 454.908 103.438C472.295 126.949 486.118 156.283 493.268 190.588C496.872 207.87 500 226.927 500 246.442C500 310.022 484.667 356.003 457.936 393.157C444.358 412.029 431.231 428.257 413.519 442.954C407.893 447.625 401.83 452.602 395.688 456.412C382.905 464.344 370.912 473.7 356.99 480.3C321.088 497.323 276.625 508.403 226.437 504.188C177.136 500.047 141.924 485.336 109.342 464.145C96.3741 455.716 83.7508 447.837 73.6721 437.229C62.997 425.984 52.3749 416.236 44.7347 403.242C37.1806 390.4 29.7061 377.459 22.861 362.53C9.54863 333.466 0.318081 300.434 0.318081 259.562C0.318081 248.543 -0.404194 238.378 0.318081 228.604C2.39876 200.495 9.36971 174.884 19.1635 153.235C25.6971 138.796 34.4903 125.862 41.7064 112.854C55.9664 87.1704 80.6828 66.4099 103.279 48.9229C126.71 30.813 156.383 18.9319 188.414 8.55502C204.868 3.23403 223.143 2.15393 243.599 0.477461ZM223.408 254.857C229.2 254.864 242.512 252.671 245.282 255.865C247.522 258.469 246.236 264.678 246.627 268.316C248.138 282.357 253.757 294.881 259.747 304.993C272.198 326.018 291.713 339.688 319.643 344.698C333.863 347.249 349.19 345.665 364.06 342.677C404.66 334.533 431.238 309.962 445.153 274.366C450.11 261.696 452.867 247.694 453.569 232.977C455.086 201.197 446.671 173.671 435.061 151.89C423.16 129.553 409.855 110.508 391.997 95.3606C382.786 87.5547 373.363 80.6103 363.397 74.1628C353.391 67.6888 342.054 62.9112 330.086 57.683C318.331 52.5475 305.522 49.5259 291.382 46.5838C265.102 41.1038 231.254 42.2104 206.591 47.929C137.736 63.8853 91.5633 102.643 59.876 155.601C54.5749 164.46 49.8304 174.307 47.4316 184.876C52.037 183.187 54.217 178.416 57.1923 175.116C79.8081 150.015 109.05 130.977 150.73 124.98C177.342 121.15 202.959 125.968 222.401 133.396C242.631 141.122 258.561 152.202 271.86 166.038C287.028 184.803 298.797 211.097 302.481 243.096C302.885 246.575 304.104 254.977 302.143 256.885C299.545 259.416 285.392 258.032 280.607 258.23C272 258.595 264.77 258.244 258.396 257.223C256.368 247.403 256.951 238.464 254.691 230.313C252.525 222.474 249.417 214.881 245.945 208.433C238.576 194.763 228.822 185.956 214.993 178.157C201.217 170.384 184.863 166.574 165.865 166.044C146.98 165.514 129.943 169.47 115.392 176.143C88.3561 188.541 66.3036 210.401 55.1646 238.391C49.1346 253.532 45.5166 271.119 46.4178 290.878C47.7166 319.485 56.5098 342.531 66.6017 362.549C76.5148 382.203 90.9868 400.088 107.652 413.36C130.593 431.623 155.674 447.056 188.07 455.418C204.503 459.666 222.686 463.158 241.571 463.158C302.488 463.158 345.672 444.657 380.202 418.072C393.256 407.887 406.263 397.358 416.879 384.761C427.547 372.091 437.268 358.09 443.795 341.352C438.05 342.783 434.77 349.601 429.661 352.795C412.916 367.778 390.685 381.044 362.701 385.099C332.989 389.406 300.162 387.948 276.896 376.683C254.725 365.949 236.224 351.762 222.719 331.591C212.322 316.052 206.352 299.301 201.859 277.752C200.441 270.966 199.282 263.286 200.852 255.878C208.029 254.851 214.933 254.857 223.408 254.857Z" fill="#03B5AA"/>
</g>
<path d="M682.25 344.5C629.25 344.5 588.75 305.25 588.75 254.5C588.75 203.5 629.5 164.25 682.25 164.25C710.75 164.25 739.25 177.25 755.5 197.5L729.75 223C717 207.5 700.75 199.5 682.25 199.5C651.5 199.5 628 223 628 254.5C628 285.5 652 309.25 683.5 309.25C701.5 309.25 717.25 301.5 729.25 287L754.25 311.75C737.75 331.75 709.75 344.5 682.25 344.5ZM767.449 342V167L803.449 159.25V221.25C813.199 213 825.699 208.75 839.699 208.75C870.199 208.75 891.699 230.25 891.699 261V342H855.449V266C855.449 250 845.199 239.75 829.449 239.75C818.199 239.75 809.449 244 803.449 252V342H767.449ZM953.607 344.25C925.607 344.25 906.107 327.75 906.107 304C906.107 279 925.857 264.5 959.607 264.5C970.607 264.5 981.107 266 991.107 269.25V260.75C991.107 246 981.857 238.75 964.107 238.75C953.357 238.75 941.107 242 924.357 249.5L911.357 222.75C932.107 213.25 951.107 208.75 970.357 208.75C1006.11 208.75 1026.61 226.25 1026.61 257.25V342H991.107V333.25C980.107 341 968.357 344.25 953.607 344.25ZM940.357 303.25C940.357 312.5 949.107 318.5 963.357 318.5C974.107 318.5 983.357 316 991.107 310.75V292.25C982.857 289.25 974.107 288 964.607 288C949.357 288 940.357 293.75 940.357 303.25ZM1047 342V211.25H1083V225.25C1091.5 214.25 1103.25 208.25 1117.75 208.25C1125 208.5 1128.75 209 1132.25 211.25V242.75C1127.25 240.5 1120.75 239 1114.25 239C1101 239 1089.75 246 1083 257.75V342H1047ZM1163.76 196.5C1152.51 196.5 1143.51 187.5 1143.51 176.25C1143.51 165 1152.51 156 1163.76 156C1175.01 156 1184.01 165 1184.01 176.25C1184.01 187.5 1175.01 196.5 1163.76 196.5ZM1145.76 342V211.25H1181.76V342H1145.76ZM1267.51 344.5C1228.01 344.5 1197.26 314.75 1197.26 276.75C1197.26 238.5 1228.01 208.75 1267.51 208.75C1306.76 208.75 1337.51 238.5 1337.51 276.75C1337.51 314.75 1306.76 344.5 1267.51 344.5ZM1267.51 313.25C1287.01 313.25 1302.26 297.25 1302.26 276.75C1302.26 256 1287.01 240 1267.51 240C1248.01 240 1232.51 256 1232.51 276.75C1232.51 297.25 1247.76 313.25 1267.51 313.25ZM1411.66 344C1381.91 344 1366.41 330.5 1366.41 304.25V241.25H1339.66V211.25H1366.41V177.5L1402.41 169.75V211.25H1439.66V241.25H1402.41V297C1402.41 309 1407.16 313.5 1420.41 313.5C1426.91 313.5 1431.91 312.75 1438.66 310.5V340C1431.16 342.25 1419.16 344 1411.66 344Z" fill="white"/>
<defs>
<clipPath id="clip0_552_181">
<rect width="500" height="505.089" fill="white"/>
</clipPath>
</defs>
</svg>
