<?xml version="1.0" encoding="utf-8"?>
<!-- Generator: Adobe Illustrator 28.0.0, SVG Export Plug-In . SVG Version: 6.00 Build 0)  -->
<svg version="1.1" id="Layer_1" xmlns="http://www.w3.org/2000/svg" xmlns:xlink="http://www.w3.org/1999/xlink" x="0px" y="0px"
	 viewBox="0 0 281 79" style="enable-background:new 0 0 281 79;" xml:space="preserve">
<style type="text/css">
	.st0{fill:#B1FCF3;}
</style>
<path class="st0" d="M38.7,25.8h38.7v12.9H38.7V25.8z M0,51.6h38.7V38.7H0V51.6z M138.7,44.7c-2.2-1.7-5.2-2.7-9-3.1l-3.8-0.4
	c-2-0.2-3.5-0.7-4.4-1.5s-1.3-1.8-1.3-3.1c0-1.5,0.6-2.8,1.9-3.7c1.3-1,3.1-1.5,5.5-1.5c2.4,0,4.2,0.5,5.5,1.5
	c1.3,0.9,1.9,2.1,1.9,3.5h5.8c-0.1-3.4-1.3-6-3.8-7.7c-2.4-1.7-5.6-2.6-9.5-2.6c-2.6,0-4.9,0.4-6.9,1.3c-2,0.8-3.5,2-4.7,3.6
	c-1.1,1.5-1.7,3.4-1.7,5.6c0,2.9,1,5.2,3.1,6.8s4.8,2.6,8,2.9l3.8,0.4c2.4,0.3,4.2,0.8,5.3,1.6s1.6,1.9,1.6,3.3
	c0,1.6-0.7,2.9-2.2,4.1c-1.5,1.1-3.6,1.6-6.4,1.6c-3.1,0-5.3-0.6-6.6-1.7c-1.3-1.2-1.9-2.5-2-3.8H113c0.1,3.4,1.4,6,3.8,7.9
	c2.5,1.9,6,2.9,10.6,2.9c2.8,0,5.3-0.5,7.5-1.4s3.9-2.2,5.1-3.9c1.3-1.7,1.9-3.6,1.9-5.7C142.1,48.7,140.9,46.4,138.7,44.7z M0,64.5
	v12.9h77.4V51.6H38.7v12.9H0z M0,25.8h38.7V12.9h38.7V0H0V25.8z M224.6,27.2h-2.3v34.4h6.2V43V32.1H242v-4.9L224.6,27.2L224.6,27.2z
	 M263.7,41.9l12.8-14.7h-6.6l-14.8,17.1V14.6h-6.2v47.1h6.2V45.6h4.6l13,16.1h7.2L263.7,41.9z M158,14.7h-6v12.6h-6v4.6h6v18
	c0,3.1,0.5,5.5,1.5,7.3s2.5,3,4.3,3.7c1.9,0.7,4.2,1.1,6.7,1.1h5.3v-5.5h-6.1c-1.9,0-3.3-0.5-4.3-1.5s-1.5-2.5-1.5-4.3V31.9h11.9
	v-4.6H158V14.7z M211.7,37.4c0.8,2.1,1.2,4.3,1.2,6.4V45c0,2.2-0.4,4.3-1.2,6.4c-0.8,2.1-2,4-3.6,5.7s-3.5,3-5.8,4.1
	c-2.3,1-5,1.5-8,1.5s-5.7-0.5-8-1.5s-4.2-2.4-5.8-4.1c-1.6-1.7-2.7-3.6-3.6-5.7c-0.8-2.1-1.2-4.3-1.2-6.4v-1.2
	c0-2.2,0.4-4.3,1.2-6.4c0.8-2.1,2-4.1,3.6-5.7c1.6-1.7,3.5-3.1,5.8-4.1s4.9-1.5,7.9-1.5c2.9,0,5.6,0.5,7.9,1.5
	c2.3,1,4.2,2.3,5.8,4.1C209.7,33.3,210.9,35.2,211.7,37.4z M206.8,44.4c0-2.4-0.5-4.6-1.5-6.6c-1-1.9-2.4-3.5-4.3-4.6
	c-1.8-1.1-4-1.7-6.6-1.7c-2.5,0-4.7,0.6-6.6,1.7c-1.9,1.1-3.3,2.6-4.3,4.6c-1,1.9-1.5,4.1-1.5,6.6c0,2.4,0.5,4.6,1.4,6.5
	c1,1.9,2.4,3.5,4.2,4.6c1.9,1.1,4.1,1.7,6.7,1.7s4.8-0.6,6.6-1.7c1.9-1.2,3.3-2.7,4.2-4.6C206.3,49,206.8,46.8,206.8,44.4z"/>
</svg>
